# xmcd
#
# Track frame offsets:
#	225
#	14676
#	34522
#	46802
#	54700
#	73403
#	91940
#	109862
#	123074
#	141567
#	154205
#	168665
#	187352
#	199466
#
# Disc length: 2905 seconds
#
# Revision: 1
# Processed by: cddbd v1.5.1PL2 Copyright (c) Steve Scherf et al.
# Submitted via: audiograbber 1.83.01
#
DISCID=d80b560e
DTITLE=Spirit of Memphis Quartet - Traveling On
DYEAR=1900
DGENRE=
TTITLE0=We Are The Spirit of Memphis Quartet
TTITLE1=I Believe in God
TTITLE2=Only Jesus
TTITLE3=Two Little Fishes and Five Loaves of Bread
TTITLE4=Talking About a Child That Do Love Jesus
TTITLE5=Walking with Jesus
TTITLE6=Motherless Child
TTITLE7=Further on Up the Road
TTITLE8=Jesus Traveled
TTITLE9=Go Get the Water
TTITLE10=I John Saw
TTITLE11=The Lord Loves Me
TTITLE12=If It Ain't One Thing, Its Another
TTITLE13=Singing Won't Be in Vain
EXTD=
EXTT0=
EXTT1=
EXTT2=
EXTT3=
EXTT4=
EXTT5=
EXTT6=
EXTT7=
EXTT8=
EXTT9=
EXTT10=
EXTT11=
EXTT12=
EXTT13=
PLAYORDER=
